{
	"asset":{
		"generator":"Khronos glTF Blender I/O v3.6.28",
		"version":"2.0"
	},
	"scene":0,
	"scenes":[
		{
			"name":"Scene",
			"nodes":[
				0
			]
		}
	],
	"nodes":[
		{
			"mesh":0,
			"name":"BlowFish"
		}
	],
	"materials":[
		{
			"doubleSided":true,
			"name":"MT_BlowFish",
			"pbrMetallicRoughness":{
				"baseColorFactor":[
					0.800000011920929,
					0.800000011920929,
					0.800000011920929,
					1
				],
				"metallicFactor":0,
				"roughnessFactor":0.5
			}
		}
	],
	"meshes":[
		{
			"name":"Cube.002",
			"primitives":[
				{
					"attributes":{
						"COLOR_0":0,
						"POSITION":1,
						"NORMAL":2,
						"TEXCOORD_0":3
					},
					"indices":4,
					"material":0
				}
			]
		}
	],
	"accessors":[
		{
			"bufferView":0,
			"componentType":5123,
			"count":484,
			"normalized":true,
			"type":"VEC4"
		},
		{
			"bufferView":1,
			"componentType":5126,
			"count":484,
			"max":[
				0.40341925621032715,
				0.24550972878932953,
				0.4060155749320984
			],
			"min":[
				-0.40341925621032715,
				-0.30473679304122925,
				-0.6888777613639832
			],
			"type":"VEC3"
		},
		{
			"bufferView":2,
			"componentType":5126,
			"count":484,
			"type":"VEC3"
		},
		{
			"bufferView":3,
			"componentType":5126,
			"count":484,
			"type":"VEC2"
		},
		{
			"bufferView":4,
			"componentType":5123,
			"count":792,
			"type":"SCALAR"
		}
	],
	"bufferViews":[
		{
			"buffer":0,
			"byteLength":3872,
			"byteOffset":0,
			"target":34962
		},
		{
			"buffer":0,
			"byteLength":5808,
			"byteOffset":3872,
			"target":34962
		},
		{
			"buffer":0,
			"byteLength":5808,
			"byteOffset":9680,
			"target":34962
		},
		{
			"buffer":0,
			"byteLength":3872,
			"byteOffset":15488,
			"target":34962
		},
		{
			"buffer":0,
			"byteLength":1584,
			"byteOffset":19360,
			"target":34963
		}
	],
	"buffers":[
		{
			"byteLength":20944,
			"uri":"data:application/octet-stream;base64,"
		}
	]
}
