{
	"asset":{
		"generator":"Khronos glTF Blender I/O v4.0.44",
		"version":"2.0"
	},
	"scene":0,
	"scenes":[
		{
			"name":"Scene",
			"nodes":[
				0,
				1
			]
		}
	],
	"nodes":[
		{
			"mesh":0,
			"name":"Computer"
		},
		{
			"mesh":1,
			"name":"Phbord",
			"translation":[
				1.8345025777816772,
				-0.5896013379096985,
				-0.08374447375535965
			]
		}
	],
	"materials":[
		{
			"doubleSided":true,
			"name":"Screen",
			"pbrMetallicRoughness":{
				"baseColorTexture":{
					"index":0
				},
				"metallicFactor":0,
				"roughnessFactor":0.5
			}
		},
		{
			"doubleSided":true,
			"name":"Computer",
			"pbrMetallicRoughness":{
				"baseColorFactor":[
					0.800000011920929,
					0.800000011920929,
					0.800000011920929,
					1
				],
				"metallicFactor":0,
				"roughnessFactor":0.5
			}
		},
		{
			"doubleSided":true,
			"name":"Bord",
			"pbrMetallicRoughness":{
				"baseColorTexture":{
					"index":1
				},
				"metallicFactor":0,
				"roughnessFactor":0.5
			}
		}
	],
	"meshes":[
		{
			"name":"Cube.002",
			"primitives":[
				{
					"attributes":{
						"POSITION":0,
						"NORMAL":1,
						"TEXCOORD_0":2
					},
					"indices":3,
					"material":0
				},
				{
					"attributes":{
						"POSITION":4,
						"NORMAL":5,
						"TEXCOORD_0":6
					},
					"indices":7,
					"material":1
				}
			]
		},
		{
			"name":"Cube.003",
			"primitives":[
				{
					"attributes":{
						"POSITION":8,
						"NORMAL":9,
						"TEXCOORD_0":10
					},
					"indices":11,
					"material":2
				},
				{
					"attributes":{
						"POSITION":12,
						"NORMAL":13,
						"TEXCOORD_0":14
					},
					"indices":15,
					"material":1
				}
			]
		}
	],
	"textures":[
		{
			"sampler":0,
			"source":0
		},
		{
			"sampler":0,
			"source":1
		}
	],
	"images":[
		{
			"mimeType":"image/png",
			"name":"541",
			"uri":"541.png"
		},
		{
			"mimeType":"image/png",
			"name":"phbord",
			"uri":"phbord.png"
		}
	],
	"accessors":[
		{
			"bufferView":0,
			"componentType":5126,
			"count":4,
			"max":[
				0.7984625697135925,
				1.3354572057724,
				0.7137227654457092
			],
			"min":[
				0.7769150733947754,
				0.2696802318096161,
				-0.6797343492507935
			],
			"type":"VEC3"
		},
		{
			"bufferView":1,
			"componentType":5126,
			"count":4,
			"type":"VEC3"
		},
		{
			"bufferView":2,
			"componentType":5126,
			"count":4,
			"type":"VEC2"
		},
		{
			"bufferView":3,
			"componentType":5123,
			"count":6,
			"type":"SCALAR"
		},
		{
			"bufferView":4,
			"componentType":5126,
			"count":149,
			"max":[
				0.9297225475311279,
				1.6107219457626343,
				0.9299207925796509
			],
			"min":[
				-0.9489238858222961,
				-0.7690802812576294,
				-0.9299207925796509
			],
			"type":"VEC3"
		},
		{
			"bufferView":5,
			"componentType":5126,
			"count":149,
			"type":"VEC3"
		},
		{
			"bufferView":6,
			"componentType":5126,
			"count":149,
			"type":"VEC2"
		},
		{
			"bufferView":7,
			"componentType":5123,
			"count":234,
			"type":"SCALAR"
		},
		{
			"bufferView":8,
			"componentType":5126,
			"count":20,
			"max":[
				0.5266485810279846,
				0.08160971105098724,
				1.0965700149536133
			],
			"min":[
				-0.5266487002372742,
				0.011189116165041924,
				-1.0965700149536133
			],
			"type":"VEC3"
		},
		{
			"bufferView":9,
			"componentType":5126,
			"count":20,
			"type":"VEC3"
		},
		{
			"bufferView":10,
			"componentType":5126,
			"count":20,
			"type":"VEC2"
		},
		{
			"bufferView":11,
			"componentType":5123,
			"count":30,
			"type":"SCALAR"
		},
		{
			"bufferView":12,
			"componentType":5126,
			"count":28,
			"max":[
				0.6588488221168518,
				0.011189116165041924,
				1.2521588802337646
			],
			"min":[
				-0.6588489413261414,
				-0.11061815917491913,
				-1.2521588802337646
			],
			"type":"VEC3"
		},
		{
			"bufferView":13,
			"componentType":5126,
			"count":28,
			"type":"VEC3"
		},
		{
			"bufferView":14,
			"componentType":5126,
			"count":28,
			"type":"VEC2"
		},
		{
			"bufferView":15,
			"componentType":5123,
			"count":54,
			"type":"SCALAR"
		}
	],
	"bufferViews":[
		{
			"buffer":0,
			"byteLength":48,
			"byteOffset":0,
			"target":34962
		},
		{
			"buffer":0,
			"byteLength":48,
			"byteOffset":48,
			"target":34962
		},
		{
			"buffer":0,
			"byteLength":32,
			"byteOffset":96,
			"target":34962
		},
		{
			"buffer":0,
			"byteLength":12,
			"byteOffset":128,
			"target":34963
		},
		{
			"buffer":0,
			"byteLength":1788,
			"byteOffset":140,
			"target":34962
		},
		{
			"buffer":0,
			"byteLength":1788,
			"byteOffset":1928,
			"target":34962
		},
		{
			"buffer":0,
			"byteLength":1192,
			"byteOffset":3716,
			"target":34962
		},
		{
			"buffer":0,
			"byteLength":468,
			"byteOffset":4908,
			"target":34963
		},
		{
			"buffer":0,
			"byteLength":240,
			"byteOffset":5376,
			"target":34962
		},
		{
			"buffer":0,
			"byteLength":240,
			"byteOffset":5616,
			"target":34962
		},
		{
			"buffer":0,
			"byteLength":160,
			"byteOffset":5856,
			"target":34962
		},
		{
			"buffer":0,
			"byteLength":60,
			"byteOffset":6016,
			"target":34963
		},
		{
			"buffer":0,
			"byteLength":336,
			"byteOffset":6076,
			"target":34962
		},
		{
			"buffer":0,
			"byteLength":336,
			"byteOffset":6412,
			"target":34962
		},
		{
			"buffer":0,
			"byteLength":224,
			"byteOffset":6748,
			"target":34962
		},
		{
			"buffer":0,
			"byteLength":108,
			"byteOffset":6972,
			"target":34963
		}
	],
	"samplers":[
		{
			"magFilter":9729,
			"minFilter":9987
		}
	],
	"buffers":[
		{
			"byteLength":7080,
			"uri":"computer.bin"
		}
	]
}
