{
	"asset":{
		"generator":"Khronos glTF Blender I/O v3.6.28",
		"version":"2.0"
	},
	"scene":0,
	"scenes":[
		{
			"name":"Scene",
			"nodes":[
				9
			]
		}
	],
	"nodes":[
		{
			"name":"Fetcher_MiddleTip",
			"rotation":[
				-9.979778115010163e-10,
				-1.2628983414586514e-09,
				-1.2628981194140465e-09,
				1
			],
			"translation":[
				-6.255129204214155e-17,
				0.05019545555114746,
				-2.5312036936852354e-20
			]
		},
		{
			"children":[
				0
			],
			"name":"Fetcher_Tip",
			"rotation":[
				5.798103108745067e-10,
				1.4363852329779547e-09,
				1.4363850109333498e-09,
				1
			],
			"translation":[
				-1.3877787807814457e-17,
				0.07703918218612671,
				-2.520315928872506e-25
			]
		},
		{
			"children":[
				1
			],
			"name":"Fetcher_MiddleTop",
			"rotation":[
				2.4088978034519926e-10,
				-7.473369145749587e-10,
				-7.473368590638074e-10,
				1
			],
			"translation":[
				-3.469446951953614e-18,
				0.12081800401210785,
				3.4641887715947677e-18
			]
		},
		{
			"children":[
				2
			],
			"name":"Fetcher_Middle",
			"rotation":[
				2.5367921652197367e-10,
				5.103800160277672e-10,
				5.103800715389184e-10,
				1
			],
			"scale":[
				1,
				0.9999999403953552,
				1
			],
			"translation":[
				3.838361026550986e-20,
				0.1765405535697937,
				-1.9191830982149072e-20
			]
		},
		{
			"children":[
				3
			],
			"name":"Fetcher_Base_Middle",
			"rotation":[
				-4.945690523783242e-10,
				-4.006531773015354e-10,
				-4.00653205057111e-10,
				1
			],
			"translation":[
				1.7016891910338894e-18,
				0.2051284909248352,
				2.4513363036159435e-18
			]
		},
		{
			"children":[
				4
			],
			"name":"Fetcher_Base",
			"rotation":[
				-3.3021832490653935e-10,
				1.5349506388151468e-10,
				1.5349506388151468e-10,
				1
			],
			"translation":[
				3.8442469335971835e-20,
				0.3525404930114746,
				9.610597946947352e-21
			]
		},
		{
			"children":[
				5
			],
			"name":"Fetcher_Root",
			"rotation":[
				1.6510914857548187e-10,
				-8.255457428774093e-11,
				-8.255457428774093e-11,
				1
			],
			"translation":[
				-1.1641532182693481e-10,
				-0.5133025646209717,
				0
			]
		},
		{
			"name":"Fetcher_Copy Rotation",
			"translation":[
				2.5320752439217387e-11,
				0.5196645855903625,
				1.58012665452123e-11
			]
		},
		{
			"mesh":0,
			"name":"Cylinder",
			"skin":0
		},
		{
			"children":[
				8,
				6,
				7
			],
			"name":"Fetcher_Rig"
		}
	],
	"animations":[
		{
			"channels":[
				{
					"sampler":0,
					"target":{
						"node":6,
						"path":"translation"
					}
				},
				{
					"sampler":1,
					"target":{
						"node":6,
						"path":"rotation"
					}
				},
				{
					"sampler":2,
					"target":{
						"node":7,
						"path":"translation"
					}
				},
				{
					"sampler":3,
					"target":{
						"node":7,
						"path":"rotation"
					}
				},
				{
					"sampler":4,
					"target":{
						"node":4,
						"path":"translation"
					}
				},
				{
					"sampler":5,
					"target":{
						"node":0,
						"path":"rotation"
					}
				},
				{
					"sampler":6,
					"target":{
						"node":5,
						"path":"translation"
					}
				},
				{
					"sampler":7,
					"target":{
						"node":4,
						"path":"rotation"
					}
				},
				{
					"sampler":8,
					"target":{
						"node":2,
						"path":"translation"
					}
				},
				{
					"sampler":9,
					"target":{
						"node":5,
						"path":"rotation"
					}
				},
				{
					"sampler":10,
					"target":{
						"node":2,
						"path":"rotation"
					}
				},
				{
					"sampler":11,
					"target":{
						"node":3,
						"path":"translation"
					}
				},
				{
					"sampler":12,
					"target":{
						"node":0,
						"path":"translation"
					}
				},
				{
					"sampler":13,
					"target":{
						"node":1,
						"path":"translation"
					}
				},
				{
					"sampler":14,
					"target":{
						"node":3,
						"path":"rotation"
					}
				},
				{
					"sampler":15,
					"target":{
						"node":1,
						"path":"rotation"
					}
				}
			],
			"name":"Fetcher_Catch",
			"samplers":[
				{
					"input":8,
					"interpolation":"CUBICSPLINE",
					"output":9
				},
				{
					"input":8,
					"interpolation":"CUBICSPLINE",
					"output":10
				},
				{
					"input":11,
					"interpolation":"CUBICSPLINE",
					"output":12
				},
				{
					"input":11,
					"interpolation":"CUBICSPLINE",
					"output":13
				},
				{
					"input":14,
					"interpolation":"LINEAR",
					"output":15
				},
				{
					"input":16,
					"interpolation":"LINEAR",
					"output":17
				},
				{
					"input":14,
					"interpolation":"LINEAR",
					"output":18
				},
				{
					"input":16,
					"interpolation":"LINEAR",
					"output":19
				},
				{
					"input":14,
					"interpolation":"LINEAR",
					"output":20
				},
				{
					"input":16,
					"interpolation":"LINEAR",
					"output":21
				},
				{
					"input":16,
					"interpolation":"LINEAR",
					"output":22
				},
				{
					"input":14,
					"interpolation":"LINEAR",
					"output":23
				},
				{
					"input":14,
					"interpolation":"LINEAR",
					"output":24
				},
				{
					"input":14,
					"interpolation":"LINEAR",
					"output":25
				},
				{
					"input":16,
					"interpolation":"LINEAR",
					"output":26
				},
				{
					"input":16,
					"interpolation":"LINEAR",
					"output":27
				}
			]
		},
		{
			"channels":[
				{
					"sampler":0,
					"target":{
						"node":6,
						"path":"translation"
					}
				},
				{
					"sampler":1,
					"target":{
						"node":6,
						"path":"rotation"
					}
				},
				{
					"sampler":2,
					"target":{
						"node":7,
						"path":"translation"
					}
				},
				{
					"sampler":3,
					"target":{
						"node":7,
						"path":"rotation"
					}
				},
				{
					"sampler":4,
					"target":{
						"node":4,
						"path":"translation"
					}
				},
				{
					"sampler":5,
					"target":{
						"node":0,
						"path":"rotation"
					}
				},
				{
					"sampler":6,
					"target":{
						"node":4,
						"path":"rotation"
					}
				},
				{
					"sampler":7,
					"target":{
						"node":5,
						"path":"translation"
					}
				},
				{
					"sampler":8,
					"target":{
						"node":2,
						"path":"translation"
					}
				},
				{
					"sampler":9,
					"target":{
						"node":5,
						"path":"rotation"
					}
				},
				{
					"sampler":10,
					"target":{
						"node":2,
						"path":"rotation"
					}
				},
				{
					"sampler":11,
					"target":{
						"node":3,
						"path":"translation"
					}
				},
				{
					"sampler":12,
					"target":{
						"node":0,
						"path":"translation"
					}
				},
				{
					"sampler":13,
					"target":{
						"node":1,
						"path":"translation"
					}
				},
				{
					"sampler":14,
					"target":{
						"node":3,
						"path":"rotation"
					}
				},
				{
					"sampler":15,
					"target":{
						"node":1,
						"path":"rotation"
					}
				}
			],
			"name":"Fetcher_Throw",
			"samplers":[
				{
					"input":28,
					"interpolation":"CUBICSPLINE",
					"output":29
				},
				{
					"input":28,
					"interpolation":"CUBICSPLINE",
					"output":30
				},
				{
					"input":31,
					"interpolation":"CUBICSPLINE",
					"output":32
				},
				{
					"input":31,
					"interpolation":"CUBICSPLINE",
					"output":33
				},
				{
					"input":14,
					"interpolation":"LINEAR",
					"output":34
				},
				{
					"input":16,
					"interpolation":"LINEAR",
					"output":35
				},
				{
					"input":16,
					"interpolation":"LINEAR",
					"output":36
				},
				{
					"input":14,
					"interpolation":"LINEAR",
					"output":37
				},
				{
					"input":14,
					"interpolation":"LINEAR",
					"output":38
				},
				{
					"input":16,
					"interpolation":"LINEAR",
					"output":39
				},
				{
					"input":16,
					"interpolation":"LINEAR",
					"output":40
				},
				{
					"input":14,
					"interpolation":"LINEAR",
					"output":41
				},
				{
					"input":14,
					"interpolation":"LINEAR",
					"output":42
				},
				{
					"input":14,
					"interpolation":"LINEAR",
					"output":43
				},
				{
					"input":16,
					"interpolation":"LINEAR",
					"output":44
				},
				{
					"input":16,
					"interpolation":"LINEAR",
					"output":45
				}
			]
		}
	],
	"materials":[
		{
			"doubleSided":true,
			"name":"MT_Fetcher",
			"pbrMetallicRoughness":{
				"baseColorTexture":{
					"index":0
				},
				"metallicFactor":0,
				"roughnessFactor":0.5
			}
		}
	],
	"meshes":[
		{
			"name":"Cylinder",
			"primitives":[
				{
					"attributes":{
						"COLOR_0":0,
						"POSITION":1,
						"NORMAL":2,
						"TEXCOORD_0":3,
						"JOINTS_0":4,
						"WEIGHTS_0":5
					},
					"indices":6,
					"material":0
				}
			]
		}
	],
	"textures":[
		{
			"sampler":0,
			"source":0
		}
	],
	"images":[
		{
			"bufferView":7,
			"mimeType":"image/png",
			"name":"TX_Fetcher"
		}
	],
	"skins":[
		{
			"inverseBindMatrices":7,
			"joints":[
				6,
				5,
				4,
				3,
				2,
				1,
				0,
				7
			],
			"name":"Fetcher_Rig"
		}
	],
	"accessors":[
		{
			"bufferView":0,
			"componentType":5123,
			"count":560,
			"normalized":true,
			"type":"VEC4"
		},
		{
			"bufferView":1,
			"componentType":5126,
			"count":560,
			"max":[
				0.02303658425807953,
				0.5196645855903625,
				0.02303658425807953
			],
			"min":[
				-0.02303658425807953,
				-0.5133025646209717,
				-0.02303658425807953
			],
			"type":"VEC3"
		},
		{
			"bufferView":2,
			"componentType":5126,
			"count":560,
			"type":"VEC3"
		},
		{
			"bufferView":3,
			"componentType":5126,
			"count":560,
			"type":"VEC2"
		},
		{
			"bufferView":4,
			"componentType":5121,
			"count":560,
			"type":"VEC4"
		},
		{
			"bufferView":5,
			"componentType":5126,
			"count":560,
			"type":"VEC4"
		},
		{
			"bufferView":6,
			"componentType":5123,
			"count":864,
			"type":"SCALAR"
		},
		{
			"bufferView":8,
			"componentType":5126,
			"count":8,
			"type":"MAT4"
		},
		{
			"bufferView":9,
			"componentType":5126,
			"count":3,
			"max":[
				0.8333333333333334
			],
			"min":[
				0.041666666666666664
			],
			"type":"SCALAR"
		},
		{
			"bufferView":10,
			"componentType":5126,
			"count":9,
			"type":"VEC3"
		},
		{
			"bufferView":11,
			"componentType":5126,
			"count":9,
			"type":"VEC4"
		},
		{
			"bufferView":12,
			"componentType":5126,
			"count":4,
			"max":[
				0.8333333333333334
			],
			"min":[
				0.041666666666666664
			],
			"type":"SCALAR"
		},
		{
			"bufferView":13,
			"componentType":5126,
			"count":12,
			"type":"VEC3"
		},
		{
			"bufferView":14,
			"componentType":5126,
			"count":12,
			"type":"VEC4"
		},
		{
			"bufferView":15,
			"componentType":5126,
			"count":2,
			"max":[
				0.8333333333333334
			],
			"min":[
				0.041666666666666664
			],
			"type":"SCALAR"
		},
		{
			"bufferView":16,
			"componentType":5126,
			"count":2,
			"type":"VEC3"
		},
		{
			"bufferView":17,
			"componentType":5126,
			"count":20,
			"max":[
				0.8333333333333334
			],
			"min":[
				0.041666666666666664
			],
			"type":"SCALAR"
		},
		{
			"bufferView":18,
			"componentType":5126,
			"count":20,
			"type":"VEC4"
		},
		{
			"bufferView":19,
			"componentType":5126,
			"count":2,
			"type":"VEC3"
		},
		{
			"bufferView":20,
			"componentType":5126,
			"count":20,
			"type":"VEC4"
		},
		{
			"bufferView":21,
			"componentType":5126,
			"count":2,
			"type":"VEC3"
		},
		{
			"bufferView":22,
			"componentType":5126,
			"count":20,
			"type":"VEC4"
		},
		{
			"bufferView":23,
			"componentType":5126,
			"count":20,
			"type":"VEC4"
		},
		{
			"bufferView":24,
			"componentType":5126,
			"count":2,
			"type":"VEC3"
		},
		{
			"bufferView":25,
			"componentType":5126,
			"count":2,
			"type":"VEC3"
		},
		{
			"bufferView":26,
			"componentType":5126,
			"count":2,
			"type":"VEC3"
		},
		{
			"bufferView":27,
			"componentType":5126,
			"count":20,
			"type":"VEC4"
		},
		{
			"bufferView":28,
			"componentType":5126,
			"count":20,
			"type":"VEC4"
		},
		{
			"bufferView":29,
			"componentType":5126,
			"count":6,
			"max":[
				0.8333333333333334
			],
			"min":[
				0.041666666666666664
			],
			"type":"SCALAR"
		},
		{
			"bufferView":30,
			"componentType":5126,
			"count":18,
			"type":"VEC3"
		},
		{
			"bufferView":31,
			"componentType":5126,
			"count":18,
			"type":"VEC4"
		},
		{
			"bufferView":32,
			"componentType":5126,
			"count":5,
			"max":[
				0.8333333333333334
			],
			"min":[
				0.041666666666666664
			],
			"type":"SCALAR"
		},
		{
			"bufferView":33,
			"componentType":5126,
			"count":15,
			"type":"VEC3"
		},
		{
			"bufferView":34,
			"componentType":5126,
			"count":15,
			"type":"VEC4"
		},
		{
			"bufferView":35,
			"componentType":5126,
			"count":2,
			"type":"VEC3"
		},
		{
			"bufferView":36,
			"componentType":5126,
			"count":20,
			"type":"VEC4"
		},
		{
			"bufferView":37,
			"componentType":5126,
			"count":20,
			"type":"VEC4"
		},
		{
			"bufferView":38,
			"componentType":5126,
			"count":2,
			"type":"VEC3"
		},
		{
			"bufferView":39,
			"componentType":5126,
			"count":2,
			"type":"VEC3"
		},
		{
			"bufferView":40,
			"componentType":5126,
			"count":20,
			"type":"VEC4"
		},
		{
			"bufferView":41,
			"componentType":5126,
			"count":20,
			"type":"VEC4"
		},
		{
			"bufferView":42,
			"componentType":5126,
			"count":2,
			"type":"VEC3"
		},
		{
			"bufferView":43,
			"componentType":5126,
			"count":2,
			"type":"VEC3"
		},
		{
			"bufferView":44,
			"componentType":5126,
			"count":2,
			"type":"VEC3"
		},
		{
			"bufferView":45,
			"componentType":5126,
			"count":20,
			"type":"VEC4"
		},
		{
			"bufferView":46,
			"componentType":5126,
			"count":20,
			"type":"VEC4"
		}
	],
	"bufferViews":[
		{
			"buffer":0,
			"byteLength":4480,
			"byteOffset":0,
			"target":34962
		},
		{
			"buffer":0,
			"byteLength":6720,
			"byteOffset":4480,
			"target":34962
		},
		{
			"buffer":0,
			"byteLength":6720,
			"byteOffset":11200,
			"target":34962
		},
		{
			"buffer":0,
			"byteLength":4480,
			"byteOffset":17920,
			"target":34962
		},
		{
			"buffer":0,
			"byteLength":2240,
			"byteOffset":22400,
			"target":34962
		},
		{
			"buffer":0,
			"byteLength":8960,
			"byteOffset":24640,
			"target":34962
		},
		{
			"buffer":0,
			"byteLength":1728,
			"byteOffset":33600,
			"target":34963
		},
		{
			"buffer":0,
			"byteLength":1312,
			"byteOffset":35328
		},
		{
			"buffer":0,
			"byteLength":512,
			"byteOffset":36640
		},
		{
			"buffer":0,
			"byteLength":12,
			"byteOffset":37152
		},
		{
			"buffer":0,
			"byteLength":108,
			"byteOffset":37164
		},
		{
			"buffer":0,
			"byteLength":144,
			"byteOffset":37272
		},
		{
			"buffer":0,
			"byteLength":16,
			"byteOffset":37416
		},
		{
			"buffer":0,
			"byteLength":144,
			"byteOffset":37432
		},
		{
			"buffer":0,
			"byteLength":192,
			"byteOffset":37576
		},
		{
			"buffer":0,
			"byteLength":8,
			"byteOffset":37768
		},
		{
			"buffer":0,
			"byteLength":24,
			"byteOffset":37776
		},
		{
			"buffer":0,
			"byteLength":80,
			"byteOffset":37800
		},
		{
			"buffer":0,
			"byteLength":320,
			"byteOffset":37880
		},
		{
			"buffer":0,
			"byteLength":24,
			"byteOffset":38200
		},
		{
			"buffer":0,
			"byteLength":320,
			"byteOffset":38224
		},
		{
			"buffer":0,
			"byteLength":24,
			"byteOffset":38544
		},
		{
			"buffer":0,
			"byteLength":320,
			"byteOffset":38568
		},
		{
			"buffer":0,
			"byteLength":320,
			"byteOffset":38888
		},
		{
			"buffer":0,
			"byteLength":24,
			"byteOffset":39208
		},
		{
			"buffer":0,
			"byteLength":24,
			"byteOffset":39232
		},
		{
			"buffer":0,
			"byteLength":24,
			"byteOffset":39256
		},
		{
			"buffer":0,
			"byteLength":320,
			"byteOffset":39280
		},
		{
			"buffer":0,
			"byteLength":320,
			"byteOffset":39600
		},
		{
			"buffer":0,
			"byteLength":24,
			"byteOffset":39920
		},
		{
			"buffer":0,
			"byteLength":216,
			"byteOffset":39944
		},
		{
			"buffer":0,
			"byteLength":288,
			"byteOffset":40160
		},
		{
			"buffer":0,
			"byteLength":20,
			"byteOffset":40448
		},
		{
			"buffer":0,
			"byteLength":180,
			"byteOffset":40468
		},
		{
			"buffer":0,
			"byteLength":240,
			"byteOffset":40648
		},
		{
			"buffer":0,
			"byteLength":24,
			"byteOffset":40888
		},
		{
			"buffer":0,
			"byteLength":320,
			"byteOffset":40912
		},
		{
			"buffer":0,
			"byteLength":320,
			"byteOffset":41232
		},
		{
			"buffer":0,
			"byteLength":24,
			"byteOffset":41552
		},
		{
			"buffer":0,
			"byteLength":24,
			"byteOffset":41576
		},
		{
			"buffer":0,
			"byteLength":320,
			"byteOffset":41600
		},
		{
			"buffer":0,
			"byteLength":320,
			"byteOffset":41920
		},
		{
			"buffer":0,
			"byteLength":24,
			"byteOffset":42240
		},
		{
			"buffer":0,
			"byteLength":24,
			"byteOffset":42264
		},
		{
			"buffer":0,
			"byteLength":24,
			"byteOffset":42288
		},
		{
			"buffer":0,
			"byteLength":320,
			"byteOffset":42312
		},
		{
			"buffer":0,
			"byteLength":320,
			"byteOffset":42632
		}
	],
	"samplers":[
		{
			"magFilter":9728,
			"minFilter":9984
		}
	],
	"buffers":[
		{
			"byteLength":42952,
			"uri":"data:application/octet-stream;base64,"
		}
	]
}
