{
	"asset":{
		"generator":"Khronos glTF Blender I/O v3.6.28",
		"version":"2.0"
	},
	"scene":0,
	"scenes":[
		{
			"name":"Scene",
			"nodes":[
				0
			]
		}
	],
	"nodes":[
		{
			"mesh":0,
			"name":"Fisher"
		}
	],
	"materials":[
		{
			"doubleSided":true,
			"name":"MT_Fisher",
			"pbrMetallicRoughness":{
				"baseColorFactor":[
					0.800000011920929,
					0.800000011920929,
					0.800000011920929,
					1
				],
				"metallicFactor":0,
				"roughnessFactor":0.5
			}
		}
	],
	"meshes":[
		{
			"name":"Sphere.001",
			"primitives":[
				{
					"attributes":{
						"COLOR_0":0,
						"POSITION":1,
						"NORMAL":2,
						"TEXCOORD_0":3
					},
					"indices":4,
					"material":0
				}
			]
		}
	],
	"accessors":[
		{
			"bufferView":0,
			"componentType":5123,
			"count":979,
			"normalized":true,
			"type":"VEC4"
		},
		{
			"bufferView":1,
			"componentType":5126,
			"count":979,
			"max":[
				0.8387683629989624,
				1.7192842960357666,
				0.7456030249595642
			],
			"min":[
				-0.8387683629989624,
				0.005567789077758789,
				-0.2739628553390503
			],
			"type":"VEC3"
		},
		{
			"bufferView":2,
			"componentType":5126,
			"count":979,
			"type":"VEC3"
		},
		{
			"bufferView":3,
			"componentType":5126,
			"count":979,
			"type":"VEC2"
		},
		{
			"bufferView":4,
			"componentType":5123,
			"count":1584,
			"type":"SCALAR"
		}
	],
	"bufferViews":[
		{
			"buffer":0,
			"byteLength":7832,
			"byteOffset":0,
			"target":34962
		},
		{
			"buffer":0,
			"byteLength":11748,
			"byteOffset":7832,
			"target":34962
		},
		{
			"buffer":0,
			"byteLength":11748,
			"byteOffset":19580,
			"target":34962
		},
		{
			"buffer":0,
			"byteLength":7832,
			"byteOffset":31328,
			"target":34962
		},
		{
			"buffer":0,
			"byteLength":3168,
			"byteOffset":39160,
			"target":34963
		}
	],
	"buffers":[
		{
			"byteLength":42328,
			"uri":"data:application/octet-stream;base64,"
		}
	]
}
