{
	"asset":{
		"generator":"Khronos glTF Blender I/O v4.0.44",
		"version":"2.0"
	},
	"scene":0,
	"scenes":[
		{
			"name":"Scene",
			"nodes":[
				0
			]
		}
	],
	"nodes":[
		{
			"mesh":0,
			"name":"Icosphere"
		}
	],
	"meshes":[
		{
			"name":"Icosphere",
			"primitives":[
				{
					"attributes":{
						"POSITION":0,
						"NORMAL":1,
						"TEXCOORD_0":2
					},
					"indices":3
				}
			]
		}
	],
	"accessors":[
		{
			"bufferView":0,
			"componentType":5126,
			"count":120,
			"max":[
				44.472084045410156,
				5.415202617645264,
				55.313255310058594
			],
			"min":[
				-45.4267463684082,
				-2.658491611480713,
				-72.98783111572266
			],
			"type":"VEC3"
		},
		{
			"bufferView":1,
			"componentType":5126,
			"count":120,
			"type":"VEC3"
		},
		{
			"bufferView":2,
			"componentType":5126,
			"count":120,
			"type":"VEC2"
		},
		{
			"bufferView":3,
			"componentType":5123,
			"count":120,
			"type":"SCALAR"
		}
	],
	"bufferViews":[
		{
			"buffer":0,
			"byteLength":1440,
			"byteOffset":0,
			"target":34962
		},
		{
			"buffer":0,
			"byteLength":1440,
			"byteOffset":1440,
			"target":34962
		},
		{
			"buffer":0,
			"byteLength":960,
			"byteOffset":2880,
			"target":34962
		},
		{
			"buffer":0,
			"byteLength":240,
			"byteOffset":3840,
			"target":34963
		}
	],
	"buffers":[
		{
			"byteLength":4080,
			"uri":"island.bin"
		}
	]
}
